HIERARCHY
ROOT hip
{
	OFFSET 0.000000 0.000000 0.000000 
	CHANNELS 6 Xposition Yposition Zposition Xrotation Zrotation Yrotation
	JOINT abdomen
	{
		OFFSET 0.000000 3.402643 0.000000 
		CHANNELS 3 Xrotation Zrotation Yrotation
		JOINT chest
		{
			OFFSET 0.000000 8.438565 -0.680529 
			CHANNELS 3 Xrotation Zrotation Yrotation
			JOINT neck
			{
				OFFSET 0.000000 10.207942 -0.272212 
				CHANNELS 3 Xrotation Zrotation Yrotation
				JOINT head
				{
					OFFSET 0.000000 3.130431 0.000000 
					CHANNELS 3 Xrotation Zrotation Yrotation
					End Site
					{
						OFFSET 0.000000 3.130435 0.000000 
					}
				}
			}
			JOINT lCollar
			{
				OFFSET 3.470700 6.669187 -0.816635 
				CHANNELS 3 Yrotation Zrotation Xrotation
				JOINT lShldr
				{
					OFFSET 3.198488 0.000000 0.000000 
					CHANNELS 3 Zrotation Yrotation Xrotation
					JOINT lForeArm
					{
						OFFSET 10.139888 0.000000 0.000000 
						CHANNELS 3 Yrotation Zrotation Xrotation
						JOINT lHand
						{
							OFFSET 8.370511 0.000000 0.000000 
							CHANNELS 3 Zrotation Yrotation Xrotation
							End Site
							{
								OFFSET 4.083176 0.000000 0.000000 
							}
						}
					}
				}
			}
			JOINT rCollar
			{
				OFFSET -3.470700 6.669187 -0.816635 
				CHANNELS 3 Yrotation Zrotation Xrotation
				JOINT rShldr
				{
					OFFSET -3.198488 0.000000 0.000000 
					CHANNELS 3 Zrotation Yrotation Xrotation
					JOINT rForeArm
					{
						OFFSET -10.139888 0.000000 0.000000 
						CHANNELS 3 Yrotation Zrotation Xrotation
						JOINT rHand
						{
							OFFSET -8.370511 0.000000 0.000000 
							CHANNELS 3 Zrotation Yrotation Xrotation
							End Site
							{
								OFFSET -4.083176 0.000000 0.000000 
							}
						}
					}
				}
			}
		}
	}
	JOINT lThigh
	{
		OFFSET 5.308129 -1.633274 1.361059 
		CHANNELS 3 Xrotation Zrotation Yrotation
		JOINT lShin
		{
			OFFSET -2.041588 -20.007561 0.000000 
			CHANNELS 3 Xrotation Zrotation Yrotation
			JOINT lFoot
			{
				OFFSET 0.000000 -19.190928 -1.224953 
				CHANNELS 3 Xrotation Yrotation Zrotation
				End Site
				{
					OFFSET 0.000000 -2.449906 4.627600 
				}
			}
		}
	}
	JOINT rThigh
	{
		OFFSET -5.308129 -1.633274 1.361059 
		CHANNELS 3 Xrotation Zrotation Yrotation
		JOINT rShin
		{
			OFFSET 2.041588 -20.007561 0.000000 
			CHANNELS 3 Xrotation Zrotation Yrotation
			JOINT rFoot
			{
				OFFSET 0.000000 -19.190928 -1.224953 
				CHANNELS 3 Xrotation Yrotation Zrotation
				End Site
				{
					OFFSET 0.000000 -2.449906 4.627600 
				}
			}
		}
	}
}
MOTION
Frames: 11
Frame Time: 0.016667
-23.289520 48.159122 -8.587998 -0.348400 1.386533 0.937935 0.000000 0.000000 0.000000 0.035304 0.487613 2.998188 2.217343 -3.084671 -1.643502 4.643620 6.575110 -8.090125 -1.294857 -2.512248 0.537738 -65.042366 19.996319 4.117796 -37.253883 -4.162996 17.484949 -8.031947 1.953963 -3.369564 3.639635 6.971154 0.588707 46.596737 28.687714 6.471153 65.525322 3.042054 -28.323755 -0.699772 -0.717779 -3.487426 -17.410061 7.381861 3.680718 27.071472 -3.789868 25.599554 -6.245133 0.394901 -6.927225 -5.027483 -10.003869 -8.371211 28.843489 1.179357 -25.943691 -16.723091 -2.323423 15.465990 
-22.771412 48.179867 -8.402757 -0.498892 1.874784 0.869634 0.000000 0.000000 0.000000 0.334286 -0.302241 3.271490 2.301839 -3.689926 -1.624646 4.697917 6.553374 -8.236751 -0.390170 -3.482430 0.812588 -63.852051 15.879177 4.761774 -37.221382 -4.218088 17.521185 -6.810775 1.089873 -3.325420 4.036068 6.069838 0.900426 45.208969 33.837009 2.826864 62.630833 3.408872 -27.859552 -1.386258 0.913452 -3.499010 -17.031076 6.230516 3.464559 26.981319 -3.890790 26.394806 -6.611224 0.416267 -6.562093 -4.499807 -11.075480 -8.756969 28.489708 0.992554 -25.519358 -16.367926 -2.314857 15.999218 
-22.268028 48.195957 -8.241983 -0.444923 1.894234 1.016361 0.000000 0.000000 0.000000 0.366318 -0.711542 3.525603 2.545099 -4.051148 -1.605839 4.612801 6.684843 -8.465440 -0.576862 -4.090601 0.812617 -63.109444 12.275520 5.338248 -37.733349 -4.341221 15.903809 -5.076078 0.500325 -3.318635 4.479584 5.581777 0.938695 42.764175 38.422813 -0.066815 58.642433 4.282692 -29.746899 -0.520918 1.827477 -3.452343 -17.010941 5.468725 3.226510 27.241203 -3.801986 27.078064 -7.153958 0.414238 -6.359133 -3.915341 -11.557373 -8.830834 27.739841 0.798488 -25.477423 -15.835022 -2.330873 16.576920 
-21.794512 48.185226 -8.117742 -0.070800 1.835572 1.143243 0.000000 0.000000 0.000000 0.297958 -1.130450 3.701799 2.261249 -4.148583 -1.694209 5.223680 6.365602 -8.490125 -0.629490 -4.119945 0.754170 -63.057522 8.445975 5.307257 -38.848171 -3.979026 14.473248 -4.976267 1.306149 -3.376594 4.682243 5.357196 0.898769 40.116100 42.794682 -3.299725 55.363407 4.989343 -32.212070 -0.746005 2.156396 -3.453430 -17.390921 4.980057 3.209862 27.737448 -4.005815 27.039648 -7.975799 0.426162 -5.960927 -3.758314 -12.031908 -9.020319 27.185547 0.770575 -25.316355 -15.440810 -2.347070 17.015043 
-21.321497 48.169140 -7.988527 0.176543 1.796434 1.270438 0.000000 0.000000 0.000000 0.283787 -1.461625 3.799832 2.170194 -4.372797 -1.822286 5.479875 6.410933 -8.666960 -0.709100 -4.169432 0.724944 -63.221630 4.640382 4.448193 -40.218891 -3.027362 16.555557 -5.100463 -0.097171 -3.285620 5.013384 4.747925 0.907231 37.559063 46.816158 -6.668821 51.553513 5.667352 -34.078960 -0.140396 2.505857 -3.430430 -17.702236 4.413289 3.074880 28.120899 -4.115172 27.325098 -8.588711 0.404952 -5.583253 -3.593713 -12.467145 -9.141788 26.682671 0.601897 -25.574358 -14.903486 -2.353194 17.649256 
-20.881666 48.157490 -7.889042 0.249511 1.874473 1.358292 0.000000 0.000000 0.000000 0.435625 -1.919379 3.898546 2.518482 -4.225672 -2.105412 4.495219 5.253901 -8.541396 -0.686275 -4.376020 0.862018 -63.013855 0.721072 4.389750 -41.670822 -2.682222 14.949799 -4.927981 -0.546982 -3.265903 5.341184 4.260889 1.072334 34.403530 50.523693 -10.197871 47.549095 6.220798 -34.696098 0.913366 3.575768 -3.354704 -17.772629 3.623046 2.799160 28.325832 -3.949180 27.876339 -8.952618 0.435902 -5.455982 -3.124557 -13.041554 -9.530669 26.190626 0.556381 -25.266720 -14.565872 -2.339023 18.026470 
-20.472019 48.179981 -7.800762 0.091681 1.552382 1.221313 0.000000 0.000000 0.000000 0.801932 -2.016255 4.123348 2.634636 -4.401251 -2.135365 4.264897 5.662927 -8.959837 -0.589704 -4.476237 1.205056 -62.681698 -3.802992 4.290517 -43.066971 -2.441429 12.839412 -4.313872 -1.187856 -3.259441 5.958434 3.957798 1.420639 30.712492 53.742477 -14.301892 43.605705 6.728339 -35.306892 -0.379505 4.399308 -3.416885 -17.662109 3.495471 2.893737 28.346489 -4.028205 28.383032 -9.210621 0.392883 -5.038536 -2.499838 -13.106136 -9.682291 25.185089 0.400241 -25.240021 -13.760279 -2.256536 18.308771 
-20.061684 48.146847 -7.724649 0.034697 1.406029 1.016038 0.000000 0.000000 0.000000 1.063522 -2.171329 4.397660 2.448649 -4.567035 -2.175079 5.261600 5.524574 -9.173637 -0.186870 -4.586254 1.450042 -62.095196 -8.744863 4.789712 -44.535141 -2.463702 9.973643 -3.596565 -1.236028 -3.287846 6.365561 3.129181 1.690876 27.765852 56.900036 -18.876637 39.421936 7.005093 -34.728104 -0.071927 4.671909 -3.392722 -17.787537 3.016718 2.747986 28.791170 -3.907400 28.884401 -9.658942 0.423447 -4.911435 -2.148902 -13.599738 -10.166357 24.856730 0.590117 -24.256729 -13.631259 -2.229147 18.360941 
-19.690918 48.131153 -7.678208 0.257663 0.859059 1.552999 0.000000 0.000000 0.000000 1.012064 -1.947355 4.406726 2.619761 -4.839308 -2.460553 5.153125 6.128766 -9.900569 -0.517010 -4.964816 1.363247 -60.959652 -13.650037 5.339419 -45.872894 -2.646188 6.658861 -3.344659 -1.700580 -3.274499 6.605828 2.689798 1.631025 24.403915 58.964764 -22.986465 35.715565 7.285585 -34.607464 0.044624 5.686380 -3.376931 -18.325668 2.850898 2.457458 29.196070 -3.617919 28.975376 -9.958308 0.402436 -4.698672 -1.797455 -13.517229 -10.753090 24.212706 0.990540 -24.850023 -13.083026 -2.147954 18.487635 
-19.343056 48.073509 -7.606072 -0.091935 0.458723 1.933688 0.000000 0.000000 0.000000 1.416376 -1.957446 4.269753 2.909570 -4.935886 -2.715205 4.980089 6.307381 -10.120453 -0.790537 -4.928117 1.715895 -59.763493 -19.067013 5.737277 -46.983673 -2.818568 3.508981 -3.206485 -2.063751 -3.257144 6.638321 2.713486 1.990283 19.805676 61.217495 -27.610441 31.952585 7.669910 -35.742264 -1.866550 5.493796 -3.523746 -18.284903 2.528388 2.243417 29.948389 -3.286305 29.091991 -10.536842 0.446086 -4.652240 -1.055170 -13.720015 -11.585133 23.993429 1.393743 -24.565136 -12.906880 -2.145849 18.589544 
-19.020723 48.038670 -7.479551 -0.345904 0.244075 1.328155 0.000000 0.000000 0.000000 1.525377 -2.228782 4.710299 3.089319 -5.005023 -2.500329 4.965812 6.324679 -10.218570 -0.914714 -4.728639 1.822834 -59.160004 -24.137762 4.990605 -47.833603 -2.468320 1.933533 -3.413384 -2.378750 -3.240834 7.341403 2.825250 2.132813 16.014364 62.443569 -31.798134 28.327719 7.858545 -34.198048 -1.217331 7.137845 -3.464726 -18.132664 2.392623 2.297596 30.424780 -3.185385 29.610739 -11.005677 0.442872 -4.691967 -0.303085 -13.818245 -11.811559 23.259583 1.109867 -23.058567 -12.819051 -2.148219 18.758621 
